<?xml version="1.0" encoding="UTF-8" standalone="no"?>
<!-- Created with Inkscape (http://www.inkscape.org/) -->

<svg
   xmlns:dc="http://purl.org/dc/elements/1.1/"
   xmlns:cc="http://creativecommons.org/ns#"
   xmlns:rdf="http://www.w3.org/1999/02/22-rdf-syntax-ns#"
   xmlns:svg="http://www.w3.org/2000/svg"
   xmlns="http://www.w3.org/2000/svg"
   xmlns:xlink="http://www.w3.org/1999/xlink"
   xmlns:sodipodi="http://sodipodi.sourceforge.net/DTD/sodipodi-0.dtd"
   xmlns:inkscape="http://www.inkscape.org/namespaces/inkscape"
   width="205.35915mm"
   height="148.98038mm"
   viewBox="0 0 205.35915 148.98038"
   version="1.1"
   id="svg8"
   inkscape:version="0.92.2 5c3e80d, 2017-08-06"
   sodipodi:docname="drawing.svg"
   inkscape:export-filename="/Users/ali/Desktop/drawing.png"
   inkscape:export-xdpi="96"
   inkscape:export-ydpi="96">
  <defs
     id="defs2">
    <linearGradient
       inkscape:collect="always"
       id="linearGradient4855">
      <stop
         style="stop-color:#5297fe;stop-opacity:1"
         offset="0"
         id="stop4851" />
      <stop
         id="stop897"
         offset="0.7419259"
         style="stop-color:#6fbffe;stop-opacity:1;" />
      <stop
         style="stop-color:#8dd3fe;stop-opacity:1"
         offset="1"
         id="stop4853" />
    </linearGradient>
    <linearGradient
       inkscape:collect="always"
       xlink:href="#linearGradient4855"
       id="linearGradient4867"
       gradientUnits="userSpaceOnUse"
       x1="87.302872"
       y1="126.19756"
       x2="87.777962"
       y2="182.89326"
       gradientTransform="matrix(1,0,0,1.3619764,-1.1259129,-23.163558)" />
  </defs>
  <sodipodi:namedview
     id="base"
     pagecolor="#ffffff"
     bordercolor="#666666"
     borderopacity="1.0"
     inkscape:pageopacity="0.0"
     inkscape:pageshadow="2"
     inkscape:zoom="0.70710678"
     inkscape:cx="458.39566"
     inkscape:cy="309.3387"
     inkscape:document-units="mm"
     inkscape:current-layer="layer1"
     showgrid="false"
     inkscape:window-width="1440"
     inkscape:window-height="775"
     inkscape:window-x="0"
     inkscape:window-y="1"
     inkscape:window-maximized="1"
     fit-margin-top="0"
     fit-margin-left="0"
     fit-margin-right="0"
     fit-margin-bottom="0" />
  <metadata
     id="metadata5">
    <rdf:RDF>
      <cc:Work
         rdf:about="">
        <dc:format>image/svg+xml</dc:format>
        <dc:type
           rdf:resource="http://purl.org/dc/dcmitype/StillImage" />
        <dc:title />
      </cc:Work>
    </rdf:RDF>
  </metadata>
  <g
     inkscape:label="Layer 1"
     inkscape:groupmode="layer"
     id="layer1"
     transform="translate(0,-148.01962)">
    <path
       style="fill:url(#linearGradient4867);fill-opacity:1;stroke:none;stroke-width:0.23492126px;stroke-linecap:butt;stroke-linejoin:miter;stroke-opacity:1"
       d="m 0.023444,148.01962 v 92.92033 H 205.33544 v -92.92033 z"
       id="path4849"
       inkscape:connector-curvature="0"
       sodipodi:nodetypes="ccccc" />
    <path
       style="fill:#1a5cd9;fill-opacity:1;stroke:none;stroke-width:0.26458332px;stroke-linecap:butt;stroke-linejoin:miter;stroke-opacity:1"
       d="M 0.023444,296.38745 V 231.58 H 134.67048 l -0.008,64.78715 z"
       id="path4837"
       inkscape:connector-curvature="0"
       sodipodi:nodetypes="ccccc" />
    <path
       style="fill:#1a71ee;fill-opacity:1;stroke:none;stroke-width:0.26458332px;stroke-linecap:butt;stroke-linejoin:miter;stroke-opacity:1"
       d="m 0.023444,296.38745 5e-4,-44.30216 15.487749,-0.52917 11.377083,-2.77812 15.345833,-2.24896 27.78125,-3.43958 9.789583,-1.32292 7.9375,-2.11667 7.011458,-0.79375 0.611849,0.0331 1.223698,0.11575 1.471745,-0.23151 0.181901,-0.0827 -0.148828,-0.14883 -0.859896,-0.13229 -1.30638,-0.14883 -0.06615,-0.14883 0.06615,-0.19843 0.314192,-0.14883 3.340363,-0.41341 9.558066,-1.25677 7.73906,-0.79375 5.87044,-0.42995 19.62878,-0.3142 0.13229,62.30938 z"
       id="path4835"
       inkscape:connector-curvature="0"
       sodipodi:nodetypes="cccccccccccccccccccccccccc" />
    <path
       style="opacity:1;fill:#5f6f9f;fill-opacity:1;stroke:none;stroke-width:0.26458332px;stroke-linecap:butt;stroke-linejoin:miter;stroke-opacity:1"
       d="M 0.02362,231.58 0,228.15467 l 3.779762,-0.4016 4.3703496,-1.01581 5.5751454,-1.46466 4.79558,-1.72452 4.41759,-1.72451 2.45685,-1.03944 1.06306,-0.42522 0.47247,-0.14174 0.54334,-0.0472 2.3151,-0.0709 h 1.81901 l 1.01581,0.18899 0.35436,-0.0709 1.55915,-0.18899 1.22842,-0.25986 0.92132,-0.44884 0.3071,-0.11812 0.73233,-0.0945 1.06306,-0.11812 0.77958,-0.0709 h 0.85044 l 0.56697,-0.47247 0.80319,-0.47247 1.34655,-0.63784 2.33872,-0.54334 2.57497,-0.7087 1.98437,-0.47247 0.4016,-0.18899 0.68508,-0.37797 0.85045,-0.4961 0.42522,-0.25986 1.22843,-0.28348 0.80319,-0.18899 1.27567,-0.3071 2.1025,-0.42523 1.39378,-0.25986 1.34654,-0.14174 1.55916,-0.14174 0.82682,-0.0472 1.22842,0.0472 1.72452,0.14174 1.32291,0.18899 1.15756,0.28348 1.34654,0.33073 0.89769,0.23624 1.74814,-0.42523 1.72452,-0.42522 2.14974,-0.47247 1.70089,-0.30711 1.84263,-0.3071 1.96076,-0.28348 1.53552,-0.23624 1.22843,-0.18898 1.63002,-0.80321 1.39379,-0.73232 2.14974,-1.37017 1.48828,-0.77957 1.46465,-0.73233 0.77958,-0.4016 1.25205,-0.56697 1.13393,-0.28348 0.68508,-0.16536 h 0.14174 l 0.75595,0.18898 1.677257,0.4961 1.441026,0.47247 0.70871,0.23623 2.83482,0.96857 1.98438,0.7087 1.58277,0.4961 1.74814,0.66146 2.45685,0.73233 2.78757,0.96856 1.74814,0.82682 0.49609,0.4016 0.61422,0.68508 0.47247,0.56697 0.28348,0.49609 0.82682,0.25986 1.03943,0.21261 1.25205,0.0945 1.44103,0.0472 1.03944,-0.0472 1.63002,-0.37798 1.29929,-0.51971 1.06306,-0.56697 0.77958,-0.33073 1.01581,-0.21261 1.22842,-0.16536 1.39379,-0.0945 1.44104,-0.21262 1.20479,-0.35435 1.48828,-0.56696 1.74814,-0.94494 1.18118,-0.8032 1.55915,-0.8032 1.18118,-0.4016 1.32291,-0.37798 0.56697,-0.0945 0.82682,-0.0472 1.15755,0.0236 1.44104,0.16537 2.59858,0.28348 1.86626,0.47247 0.75595,0.25986 0.51972,0.11811 0.77958,-0.11811 0.73233,-0.28348 0.87407,-0.4016 0.8032,-0.21262 1.08668,-0.14174 h 0.89769 l 2.12612,0.21262 1.5119,0.18898 2.03162,0.21261 1.65365,0.21261 1.44103,0.0472 1.72452,0.18899 1.93713,0.37798 0.96856,0.23623 0.89769,0.25986 1.27567,0.18899 h 0.54334 l 0.28349,0.0709 0.63783,0.28348 0.85045,0.23624 2.36235,0.73233 2.05524,0.80319 2.5041,1.03944 2.07887,0.89769 1.03943,0.54334 1.51191,-0.0709 2.10249,-0.16536 1.32291,-0.0472 1.37017,-0.0945 0.73233,-0.0709 1.44103,-0.92132 1.2993,-1.1103 1.5119,-0.70871 1.41741,-0.7087 2.97656,-1.44104 1.53553,-0.73233 1.93713,-1.06305 0.0236,23.64713 z"
       id="path4734"
       inkscape:connector-curvature="0"
       sodipodi:nodetypes="ccccccccccccccccccccccccccccccccccccccccccccccccccccccccccccccccccccccccccccccccccccccccccccccccccccccccccccccccccccccccccccccccccccccccccccccccccc" />
    <path
       inkscape:connector-curvature="0"
       style="opacity:1;fill:#8f8f9e;fill-opacity:1;stroke:none;stroke-width:0.26458332px;stroke-linecap:butt;stroke-linejoin:miter;stroke-opacity:1"
       d="m 96.478344,205.24005 -0.685231,0.16536 -1.133779,0.28319 -1.25212,0.56689 -0.779282,0.40153 -1.465027,0.73277 -1.488281,0.77928 -2.14974,1.37046 -1.393711,0.73225 -1.629876,0.80305 3.803385,-0.37827 2.811198,-0.21239 h 3.614251 l 2.102712,-0.14159 0.732256,-0.0475 0.236162,-0.0233 0.212907,-0.18914 0.09405,-0.18913 0.07132,-0.23616 0.02326,-0.1416 -0.04703,-0.2129 -0.09457,-0.16537 -0.09457,-0.047 -0.117822,-0.11833 -0.04754,-0.0233 -0.141594,-0.0238 h -0.189138 l -0.377756,0.0238 -0.519864,0.0708 -0.637688,-0.16536 -1.488281,-0.44907 -0.732253,-0.18862 -0.02379,-0.0713 0.117821,-0.0708 0.44907,-0.0946 1.039212,-0.1416 0.921393,-0.047 0.496093,-0.0476 0.09457,-0.11782 0.04754,-0.0708 0.02326,-0.18914 v -0.18914 l 0.09457,-0.18913 0.306956,-0.18862 0.921393,-0.16536 0.614432,-0.0476 h 2.243268 l -0.56585,-0.18862 -1.441256,-0.47284 -1.677417,-0.49609 -0.756028,-0.18862 z"
       id="path4736" />
    <path
       style="opacity:1;fill:#7478a0;fill-opacity:1;stroke:none;stroke-width:0.26458332px;stroke-linecap:butt;stroke-linejoin:miter;stroke-opacity:1"
       d="m 138.66957,209.98084 -0.56638,0.38551 -1.74821,0.94464 -1.48828,0.56689 -1.2051,0.3545 -1.44074,0.2124 -1.39371,0.0946 -1.22835,0.16537 -1.01596,0.21291 -0.77979,0.33072 -1.06299,0.56689 -1.29914,0.51987 -1.62988,0.37775 -1.03973,0.047 -1.44074,-0.047 -1.25212,-0.0946 -1.03973,-0.21239 -0.82682,-0.25994 -0.005,-0.009 0.0104,0.0982 0.0145,0.10026 0.0217,0.0527 0.51418,0.50177 0.69659,0.59067 0.89762,0.57877 1.09864,0.67335 0.86249,0.40152 0.95652,0.36587 1.24024,0.30748 1.0511,0.17725 1.74821,0.18861 1.28778,0.10646 1.18416,-0.20668 2.45055,-0.79677 2.41596,-1.27638 1.47807,-1.03005 v 0 l -0.16692,-0.70177 -0.15451,-0.88934 -0.0961,-0.44236 -0.092,-0.28835 -0.11266,-0.29662 -0.0165,-0.15452 0.0786,-0.0594 0.42529,-0.0827 0.51987,-0.0946 0.34261,-0.1416 0.72037,-0.47232 0.95757,-0.65267 0.12092,-0.12093 0.0253,-0.20929 z"
       id="path4752"
       inkscape:connector-curvature="0"
       sodipodi:nodetypes="cccccccccccccccccccccccccccccccccccccccccccccccccccc" />
    <path
       style="opacity:1;fill:#545e88;fill-opacity:1;stroke:none;stroke-width:0.26458332px;stroke-linecap:butt;stroke-linejoin:miter;stroke-opacity:1"
       d="m 138.66956,209.98084 0.0176,0.38292 -0.0253,0.20929 -0.12092,0.12092 -1.67793,1.125 -0.34262,0.14159 -0.94516,0.17725 -0.0786,0.0594 0.0165,0.15451 0.20464,0.58498 0.41754,2.03347 1.27798,-0.25889 1.41987,-0.20881 1.84583,-0.24221 1.79572,-0.11693 1.96276,-0.10023 1.68714,-0.025 1.11919,-0.14199 0.64311,-0.11693 0.81017,-0.29232 1.26952,-0.51784 1.01062,-0.34244 0.88533,-0.16704 0.90203,-0.13363 0.76005,-0.0835 0.66818,-0.008 1.06907,-0.0167 0.59301,0.008 0.26727,0.0167 -0.008,0.0501 -0.81852,0.14198 -0.9605,0.13364 -0.9772,0.11693 -0.96885,0.0752 -0.48443,0.0585 -0.60971,0.16705 -0.7684,0.30067 -0.65982,0.25892 -0.31738,0.15869 -0.12528,0.1754 -0.15034,0.33409 -0.3508,0.30903 -0.4009,0.16704 -0.29232,0.0752 -0.15034,-0.2088 -0.0585,-0.11694 -0.10858,-0.0418 -0.24221,0.008 -0.50948,0.0251 -0.47608,0.0919 -0.36749,0.0668 -0.45102,0.0919 -1.62032,0.39256 -1.19436,0.1921 -1.02732,0.17539 -0.95215,0.0668 -0.81016,0.10023 -1.02732,0.18374 -0.45101,0.0167 -0.37585,-0.11693 -0.11693,0.0585 -0.12528,0.12528 -0.0919,0.13364 -0.0167,0.0835 0.025,0.0668 0.1587,0.0585 0.12528,0.0334 0.10022,0.0835 -0.025,0.1754 -0.11693,0.13363 -0.0752,0.0835 -0.24222,0.33409 -0.15869,0.20881 -0.11693,0.0167 -0.36749,-0.0835 -0.41761,-0.008 -0.12529,-0.025 -0.0167,0.0334 -0.0501,0.14199 -0.0418,0.1754 -0.0668,0.0501 -0.25057,0.0835 -0.27562,0.0919 -0.0835,0.0919 -0.25057,0.32573 -0.42596,0.37585 -0.35079,0.31738 -0.0167,0.0585 0.0501,0.0251 0.45937,0.008 0.43431,-0.0167 0.10858,0.0418 0.15869,0.1921 0.30068,0.47608 0.0501,0.0668 4.64466,-0.39334 2.50409,-0.18899 3.2128,-0.14174 3.02381,-0.37798 3.26005,-0.28348 2.59858,-0.14174 h 0.66146 l 1.08668,0.28348 3.35454,1.13393 1.93713,0.51972 1.41741,0.37797 2.55134,0.23624 2.88207,0.14174 2.55134,0.18899 2.74033,0.18898 h 0.47243 l 1.79539,-1.08668 2.26786,-0.99218 2.4096,-1.13393 2.17336,-0.75595 2.83482,-0.56697 4.016,-1.08668 2.26785,-1.32299 -7.03981,0.44886 -1.03943,-0.54334 -6.63821,-2.74032 -4.13412,-1.32295 -1.81901,-0.18899 -5.5279,-1.06306 -9.66201,-0.87402 -1.08668,0.14174 -0.8032,0.21262 -1.6064,0.68508 h -1.2993 l -0.75595,-0.25986 -1.86626,-0.47247 -4.03962,-0.44885 -1.15755,-0.0236 -0.82682,0.0472 -0.56697,0.0945 -2.50409,0.77958 -1.55915,0.8032 z"
       id="path4773"
       inkscape:connector-curvature="0" />
    <path
       style="opacity:1;fill:#817628;fill-opacity:1;stroke:none;stroke-width:0.26458332px;stroke-linecap:butt;stroke-linejoin:miter;stroke-opacity:1"
       d="m 205.33544,207.60215 -9.37842,4.65383 -1.2993,1.1103 -1.44085,0.9213 -2.26785,1.32299 -4.016,1.08668 -2.83482,0.56697 -2.17336,0.75595 -4.67746,2.12611 -1.79539,1.08668 -0.89787,0.63786 -0.47247,0.25986 -0.18899,0.0236 -0.8032,-0.0945 -1.1103,-0.16536 -0.96857,-0.37798 -0.7087,-0.14174 -0.42523,0.0472 -0.87407,0.33073 -1.08668,0.40159 -1.15755,0.42523 -1.48828,0.23623 -1.41741,0.14174 -0.30711,0.11812 -1.27567,0.66146 -0.51971,0.11812 -7.74852,1.41741 -0.37797,0.11812 -0.94494,0.44884 -0.25986,0.0236 -1.13393,-0.0236 -1.13393,0.14174 h -0.77957 l -0.42523,-0.18899 -1.48828,-0.0709 -0.54334,0.14174 -0.96856,0.42522 -1.32292,0.61421 -1.37016,0.35435 -1.13393,0.0236 -1.13393,0.14174 -1.74814,0.51972 -1.25205,0.42522 -0.82682,0.61422 -0.82682,0.51971 -0.96857,0.28348 -0.66146,0.16537 -0.40159,0.33073 -0.42523,0.23623 -1.22842,0.4016 -1.81901,0.66146 74.50844,6e-5 z"
       id="path4775"
       inkscape:connector-curvature="0"
       sodipodi:nodetypes="ccccccccccccccccccccccccccccccccccccccccccccccccccccc" />
    <path
       inkscape:connector-curvature="0"
       id="path4777"
       d="m 205.33555,222.24873 -1.48828,-0.77958 -1.2993,0.3071 -3.18899,0.87405 -1.08667,-0.33065 -1.08669,-0.51972 -1.93712,-0.0472 -1.08668,0.66145 -1.84264,-0.0473 -1.13393,0.0473 -1.03961,0.54336 -1.46466,0.21261 -2.83482,-0.44887 -0.43431,-0.10023 -0.81822,0.34912 -2.6751,1.60321 -0.40802,0.10882 -1.99544,-0.38711 -0.35624,0.0802 -0.83611,0.48511 -4.06411,0.52546 -4.11086,1.48906 -0.39845,0.0415 -3.91524,-0.56676 -0.49057,0.0267 -9.74051,1.9723 -0.59906,0.0811 -3.41816,0.4021 -0.81131,0.3319 -1.32893,0.57485 -1.51813,-0.0737 -1.31768,-0.042 -1.83195,0.21715 -2.09566,0.47919 -2.45713,0.33 -0.72709,0.0582 -1.30265,-0.12602 -1.10576,0.16319 -2.25549,0.28753 -1.71858,0.22405 -2.2884,0.32385 v 0 l 74.50844,-5e-5 z"
       style="opacity:1;fill:#707f89;fill-opacity:1;stroke:none;stroke-width:0.26458332px;stroke-linecap:butt;stroke-linejoin:miter;stroke-opacity:1"
       sodipodi:nodetypes="cccccccccccccccccccccccccccccccccccccccccccc" />
    <path
       style="opacity:1;fill:#456176;fill-opacity:1;stroke:none;stroke-width:0.26458332px;stroke-linecap:butt;stroke-linejoin:miter;stroke-opacity:1"
       d="m 146.91482,218.96511 3.37445,-0.41698 3.05149,-0.27421 3.11796,-0.11201 1.33384,0.34143 3.10738,1.07598 3.35454,0.89769 10.72508,0.75595 h 0.47243 l -1.37034,0.89772 -0.18899,0.0236 -1.9135,-0.25986 -0.96857,-0.37798 -0.7087,-0.14174 -0.42523,0.0472 -3.1183,1.15755 -1.42601,0.21964 -1.47968,0.15833 -1.58278,0.77958 -0.52755,0.12395 -7.74068,1.41158 -0.37797,0.11812 -0.94494,0.44884 h -1.39379 l -1.13393,0.14174 h -0.77957 l -0.42523,-0.18899 -1.48828,-0.0709 -0.54334,0.14174 -2.29148,1.03943 -1.37016,0.35435 -1.13393,0.0236 -1.13393,0.14174 0.9036,-0.60816 0.18899,-0.57878 0.14764,-0.7087 0.0709,-0.0591 1.81311,-0.33664 1.19299,-0.21261 1.52962,-0.25986 0.71461,-0.11221 0.17127,-0.006 0.38979,0.0709 0.9036,-0.11221 1.9135,-0.24214 0.93313,-0.14174 0.0768,-0.0709 0.0768,-0.53744 0.2008,-2.01981 -0.0118,-0.14174 -0.21852,-0.32482 -0.88588,-1.004 -0.19489,-0.11221 z"
       id="path4798"
       inkscape:connector-curvature="0"
       sodipodi:nodetypes="cccccccccccccccccccccccccccccccccccccccccccccccccccccc" />
    <path
       style="opacity:1;fill:#676f8e;fill-opacity:1;stroke:none;stroke-width:0.26458332px;stroke-linecap:butt;stroke-linejoin:miter;stroke-opacity:1"
       d="m 136.55327,219.68918 -2.25361,0.44531 -0.4961,0.0118 -0.81501,-0.12993 -0.61421,-0.35435 -0.8032,-0.37798 -0.9095,-0.27167 -1.01582,-0.14174 -0.9095,0.0118 -0.12993,-0.0709 0.0827,-0.17718 1.10172,-0.561 2.45055,-0.79677 2.41595,-1.27638 1.47807,-1.03004 4.54363,-0.70994 5.44562,-0.24216 1.7623,-0.25893 3.09031,-1.15259 2.54741,-0.38417 h 2.59753 l -0.008,0.0501 -4.2095,0.52626 -0.60971,0.16705 -1.7456,0.71828 -0.12528,0.17539 -0.15034,0.33409 -0.3508,0.30903 -0.69322,0.24224 -0.20884,-0.32574 -0.10858,-0.0418 -0.75169,0.0331 -2.91491,0.64316 -2.22168,0.36749 -2.78963,0.35078 -0.45101,0.0167 -0.37585,-0.11693 -0.11693,0.0585 -0.21718,0.25892 0.008,0.1503 0.28398,0.0919 0.10022,0.0835 -0.025,0.1754 -0.19213,0.21713 -0.40091,0.5429 -0.11693,0.0167 -0.36749,-0.0835 -0.4176,-0.008 -0.1253,-0.025 -0.1086,0.35079 -0.0668,0.0501 -0.52619,0.1754 -0.33407,0.41763 -0.77674,0.69323 -0.0167,0.0585 0.0501,0.0251 0.89368,-0.009 0.10858,0.0418 z"
       id="path4802"
       inkscape:connector-curvature="0" />
    <path
       style="opacity:1;fill:#545e88;fill-opacity:1;stroke:none;stroke-width:0.26458332px;stroke-linecap:butt;stroke-linejoin:miter;stroke-opacity:1"
       d="m 128.60662,218.28007 -1.25765,0.21477 -1.87924,0.5763 -2.46389,0.67653 -2.41378,0.74334 -3.03184,0.76005 1.62868,0.56795 0.30067,0.0585 3.2657,0.0501 4.30972,-0.14199 1.77902,-0.11693 0.1921,-0.0418 4.76745,-1.48062 -0.81501,-0.12993 -0.61421,-0.35435 -0.8032,-0.37798 -0.9095,-0.27167 -1.01582,-0.14174 -0.9095,0.0118 -0.12993,-0.0709 0.0827,-0.17718 1.1017,-0.56095 z"
       id="path4812"
       inkscape:connector-curvature="0" />
    <path
       style="opacity:1;fill:#576b90;fill-opacity:1;stroke:none;stroke-width:0.26458332px;stroke-linecap:butt;stroke-linejoin:miter;stroke-opacity:1"
       d="m 117.56022,221.25106 3.02349,-0.7517 1.921,-0.60135 -1.87089,-1.01897 -3.04019,-1.50339 -2.97337,-1.33635 -1.87089,-1.06908 -2.07134,-0.93544 -0.3842,0.0501 -0.16704,0.13364 -0.55124,0.95215 -0.28398,0.70158 -0.15034,0.10023 -0.61806,0.0668 -0.91874,-0.0167 -1.30294,-0.3842 -1.90429,-0.7517 -3.65825,-1.65373 -1.286236,-0.51783 -2.722807,-0.83522 -0.601355,-0.15034 -1.369756,-0.21716 -0.08352,0.0835 -0.03341,0.23386 0.100227,0.95214 v 0.41761 l -0.06682,0.16705 -1.453277,0.98555 -3.608138,2.12145 -2.873148,1.08579 -0.05011,0.0835 0.23386,0.30068 0.167042,0.13363 v 0.10023 l -0.267269,0.0835 -1.486686,0.41761 -3.641547,0.96885 -0.11693,-0.0501 0.11693,-0.43432 v -0.10022 l -0.417608,-0.56795 -1.002263,-1.1359 -0.734991,-0.45101 -2.622582,-1.43658 -6.307878,-1.75069 -3.401788,-0.85045 -1.749515,0.914 -0.267268,0.3675 -0.551244,1.18601 -0.217157,1.03567 v 0.50113 l -0.05011,0.0835 -1.319644,0.46772 -0.200451,0.16705 -0.467722,0.56794 -0.300678,0.11693 -2.088044,0.48443 -2.33861,0.0167 -2.305198,-0.7851 h -0.217156 l -10.757599,0.85192 -3.958664,0.0722 h -0.850439 l -2.57497,0.28351 -1.228418,0.56696 -1.228421,0.25987 -1.913509,0.25988 -1.015812,-0.18898 2.346722,1.41925 0.384201,0.15034 1.904294,0.55125 0.467722,-0.0167 6.999121,-0.21715 3.791886,0.15033 4.075859,-0.26726 22.83484,-0.78511 9.187392,-0.3675 12.428032,-0.50113 12.49485,-0.28397 2.48895,0.0668 3.59143,0.55124 z"
       id="path4814"
       inkscape:connector-curvature="0" />
    <path
       style="opacity:1;fill:#406a8d;fill-opacity:1;stroke:none;stroke-width:0.26458332px;stroke-linecap:butt;stroke-linejoin:miter;stroke-opacity:1"
       d="M 0.02362,231.58 0,228.15467 l 3.7797617,-0.4016 9.9454953,-2.48047 12.73308,-4.91369 0.472469,-0.14174 4.677455,-0.1182 2.346722,1.41925 2.288495,0.70159 7.466843,-0.23385 3.791887,0.15033 4.115162,-0.24185 45.120906,-1.74814 6.094864,-0.0472 5.95312,-0.14174 2.22587,0.0408 3.59143,0.55124 2.95666,0.7017 1.62868,0.56795 0.30067,0.0585 3.51805,0.0642 5.83639,-0.273 4.95955,-1.5224 0.4961,-0.0118 2.25361,-0.44531 10.36155,-0.72407 4.18124,1.05113 1.1044,1.32882 -0.2658,2.69899 -3.82703,0.56699 -0.56106,-0.0649 -5.25033,0.92132 -0.21854,0.7678 -0.18899,0.57878 -0.9036,0.60816 -3.00019,0.94494 -1.65364,1.13393 -1.63003,0.44885 -0.40159,0.33073 -3.47266,1.29929 z"
       id="path4816"
       inkscape:connector-curvature="0"
       sodipodi:nodetypes="ccccccccccccccccccccccccccccccccccccccccc" />
    <path
       style="opacity:1;fill:#7f83ac;fill-opacity:1;stroke:none;stroke-width:0.26458332px;stroke-linecap:butt;stroke-linejoin:miter;stroke-opacity:1"
       d="m 110.67803,214.03478 -4.58485,-1.87322 -2.83482,-0.66146 -8.528229,-1.01593 h -3.614253 l -6.614573,0.59066 -7.488661,1.15759 -3.921503,0.85045 -2.480466,0.63779 6.307881,1.75061 3.357573,1.88759 1.41987,1.70385 -0.11693,0.53454 0.11693,0.0501 5.395503,-1.46996 v -0.10023 l -0.400902,-0.43431 0.05011,-0.0835 2.873148,-1.08579 5.061415,-3.107 0.06682,-0.16705 -0.100227,-1.36975 0.03341,-0.23386 0.08352,-0.0835 1.369756,0.21716 3.324162,0.98556 6.848776,2.92326 1.30294,0.3842 1.5368,-0.0501 0.15034,-0.10023 0.83522,-1.65373 0.16704,-0.13364 z"
       id="path4818"
       inkscape:connector-curvature="0" />
    <path
       style="opacity:1;fill:#7f83ac;fill-opacity:1;stroke:none;stroke-width:0.26458332px;stroke-linecap:butt;stroke-linejoin:miter;stroke-opacity:1"
       d="m 40.419825,218.91783 0.566971,-0.47247 2.149742,-1.11031 6.898058,-1.72451 2.36235,-1.32292 6.80357,-1.46466 3.73252,-0.33068 4.275854,0.37785 -1.749515,0.914 -0.818512,1.55351 -0.217157,1.03567 v 0.50113 l -0.05011,0.0835 -1.319644,0.46772 -0.200451,0.16705 -0.46772,0.56794 -2.388721,0.60136 -2.338613,0.0167 -2.305198,-0.7851 -10.774307,0.85203 z"
       id="path4820"
       inkscape:connector-curvature="0" />
    <path
       style="opacity:1;fill:#596075;fill-opacity:1;stroke:none;stroke-width:0.26458332px;stroke-linecap:butt;stroke-linejoin:miter;stroke-opacity:1"
       d="m 137.98492,228.3672 -3.9215,0.75604 -17.59952,1.01581 -8.05561,0.33073 -7.70127,-0.0236 -12.28422,0.0945 -15.686013,-0.47247 -12.851188,-0.28348 -18.520833,-0.47247 -19.465775,0.18899 -15.8749995,0.47247 -6.0005475,0.27167 -2e-7,1.33461 130.8035562,9e-5 3.04743,-1.06317 0.42523,-0.23617 0.40159,-0.33074 1.63003,-0.4489 z"
       id="path4822"
       inkscape:connector-curvature="0"
       sodipodi:nodetypes="ccccccccccccccccccc" />
    <path
       style="opacity:1;fill:#546f8d;fill-opacity:1;stroke:none;stroke-width:0.26458332px;stroke-linecap:butt;stroke-linejoin:miter;stroke-opacity:1"
       d="m 151.85786,224.11495 -3.75023,0.49615 -0.38979,-0.071 -0.17127,0.006 -5.25033,0.92126 -0.0709,0.0591 -0.33663,1.28748 -0.9036,0.60816 -3.00019,0.945 -3.9215,0.75604 -18.73344,1.06305 -6.80358,0.28349 H 96.076818 l -7.630393,0.0472 -9.898253,-0.28348 -9.992746,-0.25986 -16.701823,-0.4016 -10.488837,-0.25986 -13.937874,0.11812 -10.488838,0.23624 -16.91461,0.57881 v -2.09072 l 3.7563176,-0.4016 9.9454954,-2.48047 13.205549,-5.05543 4.67745,-0.1181 2.346727,1.41915 2.288495,0.70159 7.466843,-0.23385 3.791887,0.15033 5.461796,-0.33413 12.117412,-0.46124 31.08902,-1.14763 11.861954,-0.26869 2.97974,0.0736 3.59143,0.55124 2.95666,0.7017 1.92935,0.62641 3.51805,0.0642 5.83639,-0.27306 4.95955,-1.52234 0.4961,-0.0118 2.25361,-0.44532 10.36155,-0.72412 3.98635,0.93892 1.29929,1.44109 z"
       id="path4824"
       inkscape:connector-curvature="0"
       sodipodi:nodetypes="ccccccccccccccccccccccccccccccccccccccccccccccc" />
    <path
       style="fill:#959783;fill-opacity:1;stroke:none;stroke-width:0.26458332px;stroke-linecap:butt;stroke-linejoin:miter;stroke-opacity:1"
       d="m 185.94546,233.85796 -56.14099,-0.31266 -3.60804,0.76842 -9.12038,1.87121 -8.45271,1.16892 -0.40101,0.2005 -0.73484,0.4346 0.0336,0.26717 0.30076,0.46767 -0.0336,0.2005 -2.63912,0.70177 -7.517369,1.53634 -0.400492,0.16743 -0.93586,0.90176 -0.467673,0.16691 -1.770433,0.36794 -0.467672,0.16691 -0.300757,0.40101 -0.467672,0.23358 -1.069184,0.23409 -0.40101,0.23358 -0.401008,1.06919 -0.534334,0.30075 -3.842144,2.53887 -0.100254,0.60151 -0.200503,0.40101 -8.318355,2.40554 -3.207557,1.4366 -3.774964,2.40502 -3.708299,1.43661 -7.283275,2.03811 -0.467673,0.40102 0.100251,0.60099 -0.300754,0.4346 -18.441771,6.24716 -8.953457,2.77296 -8.619112,2.97346 -7.483781,2.80655 -0.935344,0.33383 -1.804024,1.33635 -0.635103,0.13384 -4.5769818,0.70125 -7.8391212,1.70429 V 297 h 128.583176 15.13137 41.46295 z"
       id="path4833"
       inkscape:connector-curvature="0"
       sodipodi:nodetypes="cccccccccccccccccccccccccccccccccccccccccccccccc" />
    <path
       style="fill:#a8a477;fill-opacity:1;stroke:none;stroke-width:0.26458332px;stroke-linecap:butt;stroke-linejoin:miter;stroke-opacity:1"
       d="m 205.33544,231.58 -74.50844,9e-5 2.8028,0.0778 -2.44845,0.86716 -0.0591,0.0945 0.0945,0.12993 0.48428,0.36616 0.15355,0.18899 -0.2008,0.15355 -1.08668,0.21261 1.98437,0.31892 1.25205,0.16536 0.63784,0.63784 0.0236,0.18899 -0.23623,0.3071 -0.61421,0.18899 -0.35435,0.0472 -4.86645,0.37797 -0.16536,0.11812 0.35435,0.54334 -0.0472,0.16537 -1.01581,0.68508 -0.49609,0.49609 v 0.0945 l 0.16536,0.11811 9.44941,0.96857 9.18954,-0.18899 1.08668,0.11812 0.0945,0.11811 -0.18899,0.4016 -0.16536,0.16537 -2.59859,0.56696 -0.0472,0.11812 2.4096,0.70871 1.06306,0.11811 3.04743,-0.0236 0.0945,0.14174 -0.35436,0.7087 -0.0709,0.70871 -0.28348,0.59059 -1.5119,0.99218 v 0.0945 l 1.29929,0.59059 1.34654,1.34654 3.80338,0.16536 0.14174,0.0472 0.4016,0.4016 v 0.11812 l -0.0945,0.16536 -0.37797,0.18899 -3.2128,0.94494 -0.0709,0.11812 3.77976,1.1103 0.21261,0.21261 0.3071,0.82683 -0.0709,0.16536 -1.53552,0.68508 v 0.14174 l 1.70089,1.67727 0.25986,0.14174 2.19698,0.21261 0.11812,0.0945 -0.14174,0.21261 -2.7167,2.48047 -0.42523,0.16536 -7.32329,1.44104 -0.18898,0.18899 -0.54334,1.44103 0.0709,0.28348 0.33073,0.47247 2.10249,0.70871 0.11812,0.14174 -0.59059,0.87407 -1.13393,0.56696 -0.61421,1.03944 -2.22061,2.10249 -0.0945,0.16537 0.18899,0.16536 2.62221,0.87407 0.16537,0.18899 0.11811,0.47247 0.21262,0.21261 2.03162,0.94494 0.0945,0.18899 -0.0945,0.54334 -0.33073,0.33073 -4.70108,3.14193 -0.63784,0.99218 -2.69308,2.52772 -1.93712,1.06306 -8.24461,3.5199 -2.66946,0.56696 -4.18136,2.14974 -1.81901,1.44104 -6.52009,1.6064 -0.14174,0.14174 0.0709,0.21261 1.37017,1.46466 0.44884,0.23623 12.94569,0.4016 0.33073,0.14174 0.33073,0.51972 0.25985,1.06306 -0.11811,0.3071 -4.86645,2.66946 -0.11811,0.25986 1.25204,2.58143 76.72905,-4.7e-4 z"
       id="path4826"
       inkscape:connector-curvature="0"
       sodipodi:nodetypes="ccccccccccccccccccccccccccccccccccccccccccccccccccccccccccccccccccccccccccccccccccccccccccccccccccccccccccccc" />
  </g>
</svg>
